# xmcd
#
# Track frame offsets:
# 150
# 3982
# 23503
# 52883
# 76113
# 102823
# 122699
# 127617
# 155232
# 177560
# 203775
# 229741
# 259141
# 287883
#
# Disc length: 3964 seconds
#
# Revision: 0
# Processed by: cddbd v1.5.2PL0 Copyright (c) Steve Scherf et al.
# Submitted via: Audion 3.0.2 (http://www.panic.com/audion/)
#
DISCID=ad0f7a0e
DTITLE=m - h«°«°«°j
DYEAR=1900
DGENRE=
TTITLE0=≈G
TTITLE1=≈A
TTITLE2=≈Gl
TTITLE3=m
TTITLE4=m
TTITLE5=hgf
TTITLE6=xz≈v
TTITLE7=«°gf≈v
TTITLE8=zrf
TTITLE9=xf
TTITLE10=≈Aj
TTITLE11=kpk
TTITLE12=m«“k
TTITLE13=«“jg
EXTD=
EXTT0=
EXTT1=
EXTT2=
EXTT3=
EXTT4=
EXTT5=
EXTT6=
EXTT7=
EXTT8=
EXTT9=
EXTT10=
EXTT11=
EXTT12=
EXTT13=
PLAYORDER=
